<svg id="visual" viewBox="0 0 900 600" width="900" height="600" xmlns="http://www.w3.org/2000/svg" xmlns:xlink="http://www.w3.org/1999/xlink" version="1.1"><rect width="900" height="600" fill="#FAFFFD"></rect><g><g transform="translate(220 6)"><path d="M0 -51.4L40.2 -32L50.1 11.4L22.3 46.3L-22.3 46.3L-50.1 11.4L-40.2 -32Z" fill="none" stroke="#FA824C" stroke-width="2"></path></g><g transform="translate(7 85)"><path d="M0 -38L29.7 -23.7L37 8.5L16.5 34.2L-16.5 34.2L-37 8.5L-29.7 -23.7Z" fill="none" stroke="#FA824C" stroke-width="2"></path></g><g transform="translate(184 488)"><path d="M0 -46L36 -28.7L44.8 10.2L20 41.4L-20 41.4L-44.8 10.2L-36 -28.7Z" fill="none" stroke="#FA824C" stroke-width="2"></path></g><g transform="translate(349 94)"><path d="M0 -48L37.5 -29.9L46.8 10.7L20.8 43.2L-20.8 43.2L-46.8 10.7L-37.5 -29.9Z" stroke="#FA824C" fill="none" stroke-width="2"></path></g><g transform="translate(604 562)"><path d="M0 -28L21.9 -17.5L27.3 6.2L12.1 25.2L-12.1 25.2L-27.3 6.2L-21.9 -17.5Z" stroke="#FA824C" fill="none" stroke-width="2"></path></g><g transform="translate(416 348)"><path d="M0 -26L20.3 -16.2L25.3 5.8L11.3 23.4L-11.3 23.4L-25.3 5.8L-20.3 -16.2Z" stroke="#FA824C" fill="none" stroke-width="2"></path></g><g transform="translate(349 432)"><path d="M0 -25L19.5 -15.6L24.4 5.6L10.8 22.5L-10.8 22.5L-24.4 5.6L-19.5 -15.6Z" stroke="#FA824C" fill="none" stroke-width="2"></path></g><g transform="translate(579 319)"><path d="M0 -45L35.2 -28.1L43.9 10L19.5 40.5L-19.5 40.5L-43.9 10L-35.2 -28.1Z" stroke="#FA824C" fill="none" stroke-width="2"></path></g><g transform="translate(140 383)"><path d="M0 -38L29.7 -23.7L37 8.5L16.5 34.2L-16.5 34.2L-37 8.5L-29.7 -23.7Z" stroke="#FA824C" fill="none" stroke-width="2"></path></g><g transform="translate(37 344)"><path d="M0 -49L38.3 -30.6L47.8 10.9L21.3 44.1L-21.3 44.1L-47.8 10.9L-38.3 -30.6Z" stroke="#FA824C" fill="none" stroke-width="2"></path></g><g transform="translate(654 136)"><path d="M0 -29L22.7 -18.1L28.3 6.5L12.6 26.1L-12.6 26.1L-28.3 6.5L-22.7 -18.1Z" stroke="#FA824C" fill="none" stroke-width="2"></path></g><g transform="translate(195 285)"><path d="M0 -29L22.7 -18.1L28.3 6.5L12.6 26.1L-12.6 26.1L-28.3 6.5L-22.7 -18.1Z" stroke="#FA824C" fill="none" stroke-width="2"></path></g><g transform="translate(859 88)"><path d="M0 -28L21.9 -17.5L27.3 6.2L12.1 25.2L-12.1 25.2L-27.3 6.2L-21.9 -17.5Z" stroke="#FA824C" fill="none" stroke-width="2"></path></g><g transform="translate(361 254)"><path d="M0 -27L21.1 -16.8L26.3 6L11.7 24.3L-11.7 24.3L-26.3 6L-21.1 -16.8Z" stroke="#FA824C" fill="none" stroke-width="2"></path></g><g transform="translate(707 379)"><path d="M0 -31L24.2 -19.3L30.2 6.9L13.5 27.9L-13.5 27.9L-30.2 6.9L-24.2 -19.3Z" stroke="#FA824C" fill="none" stroke-width="2"></path></g><g transform="translate(582 432)"><path d="M0 -25L19.5 -15.6L24.4 5.6L10.8 22.5L-10.8 22.5L-24.4 5.6L-19.5 -15.6Z" stroke="#FA824C" fill="none" stroke-width="2"></path></g><g transform="translate(472 141)"><path d="M0 -50L39.1 -31.2L48.7 11.1L21.7 45L-21.7 45L-48.7 11.1L-39.1 -31.2Z" stroke="#FA824C" fill="none" stroke-width="2"></path></g><g transform="translate(891 411)"><path d="M0 -40L31.3 -24.9L39 8.9L17.4 36L-17.4 36L-39 8.9L-31.3 -24.9Z" stroke="#FA824C" fill="none" stroke-width="2"></path></g><g transform="translate(744 5)"><path d="M0 -35L27.4 -21.8L34.1 7.8L15.2 31.5L-15.2 31.5L-34.1 7.8L-27.4 -21.8Z" stroke="#FA824C" fill="none" stroke-width="2"></path></g><g transform="translate(878 547)"><path d="M0 -25L19.5 -15.6L24.4 5.6L10.8 22.5L-10.8 22.5L-24.4 5.6L-19.5 -15.6Z" stroke="#FA824C" fill="none" stroke-width="2"></path></g><g transform="translate(878 212)"><path d="M0 -40L31.3 -24.9L39 8.9L17.4 36L-17.4 36L-39 8.9L-31.3 -24.9Z" stroke="#FA824C" fill="none" stroke-width="2"></path></g><g transform="translate(131 154)"><path d="M0 -30L23.5 -18.7L29.2 6.7L13 27L-13 27L-29.2 6.7L-23.5 -18.7Z" stroke="#FA824C" fill="none" stroke-width="2"></path></g><g transform="translate(438 42)"><path d="M0 -40L31.3 -24.9L39 8.9L17.4 36L-17.4 36L-39 8.9L-31.3 -24.9Z" stroke="#FA824C" fill="none" stroke-width="2"></path></g><g transform="translate(321 592)"><path d="M0 -34L26.6 -21.2L33.1 7.6L14.8 30.6L-14.8 30.6L-33.1 7.6L-26.6 -21.2Z" stroke="#FA824C" fill="none" stroke-width="2"></path></g><g transform="translate(448 543)"><path d="M0 -50L39.1 -31.2L48.7 11.1L21.7 45L-21.7 45L-48.7 11.1L-39.1 -31.2Z" stroke="#FA824C" fill="none" stroke-width="2"></path></g><g transform="translate(762 142)"><path d="M0 -44L34.4 -27.4L42.9 9.8L19.1 39.6L-19.1 39.6L-42.9 9.8L-34.4 -27.4Z" stroke="#FA824C" fill="none" stroke-width="2"></path></g><g transform="translate(567 216)"><path d="M0 -26L20.3 -16.2L25.3 5.8L11.3 23.4L-11.3 23.4L-25.3 5.8L-20.3 -16.2Z" stroke="#FA824C" fill="none" stroke-width="2"></path></g><g transform="translate(247 112)"><path d="M0 -27L21.1 -16.8L26.3 6L11.7 24.3L-11.7 24.3L-26.3 6L-21.1 -16.8Z" stroke="#FA824C" fill="none" stroke-width="2"></path></g><g transform="translate(78 467)"><path d="M0 -28L21.9 -17.5L27.3 6.2L12.1 25.2L-12.1 25.2L-27.3 6.2L-21.9 -17.5Z" stroke="#FA824C" fill="none" stroke-width="2"></path></g><g transform="translate(553 57)"><path d="M0 -33L25.8 -20.6L32.2 7.3L14.3 29.7L-14.3 29.7L-32.2 7.3L-25.8 -20.6Z" stroke="#FA824C" fill="none" stroke-width="2"></path></g><g transform="translate(775 594)"><path d="M0 -46L36 -28.7L44.8 10.2L20 41.4L-20 41.4L-44.8 10.2L-36 -28.7Z" stroke="#FA824C" fill="none" stroke-width="2"></path></g><g transform="translate(247 378)"><path d="M0 -44L34.4 -27.4L42.9 9.8L19.1 39.6L-19.1 39.6L-42.9 9.8L-34.4 -27.4Z" stroke="#FA824C" fill="none" stroke-width="2"></path></g><g transform="translate(52 598)"><path d="M0 -46L36 -28.7L44.8 10.2L20 41.4L-20 41.4L-44.8 10.2L-36 -28.7Z" stroke="#FA824C" fill="none" stroke-width="2"></path></g><g transform="translate(708 262)"><path d="M0 -43L33.6 -26.8L41.9 9.6L18.7 38.7L-18.7 38.7L-41.9 9.6L-33.6 -26.8Z" stroke="#FA824C" fill="none" stroke-width="2"></path></g><g transform="translate(813 304)"><path d="M0 -33L25.8 -20.6L32.2 7.3L14.3 29.7L-14.3 29.7L-32.2 7.3L-25.8 -20.6Z" stroke="#FA824C" fill="none" stroke-width="2"></path></g><g transform="translate(120 33)"><path d="M0 -38L29.7 -23.7L37 8.5L16.5 34.2L-16.5 34.2L-37 8.5L-29.7 -23.7Z" stroke="#FA824C" fill="none" stroke-width="2"></path></g><g transform="translate(171 595)"><path d="M0 -33L25.8 -20.6L32.2 7.3L14.3 29.7L-14.3 29.7L-32.2 7.3L-25.8 -20.6Z" stroke="#FA824C" fill="none" stroke-width="2"></path></g><g transform="translate(765 473)"><path d="M0 -27L21.1 -16.8L26.3 6L11.7 24.3L-11.7 24.3L-26.3 6L-21.1 -16.8Z" stroke="#FA824C" fill="none" stroke-width="2"></path></g><g transform="translate(27 229)"><path d="M0 -49L38.3 -30.6L47.8 10.9L21.3 44.1L-21.3 44.1L-47.8 10.9L-38.3 -30.6Z" stroke="#FA824C" fill="none" stroke-width="2"></path></g><g transform="translate(464 243)"><path d="M0 -47L36.7 -29.3L45.8 10.5L20.4 42.3L-20.4 42.3L-45.8 10.5L-36.7 -29.3Z" stroke="#FA824C" fill="none" stroke-width="2"></path></g><g transform="translate(479 441)"><path d="M0 -32L25 -20L31.2 7.1L13.9 28.8L-13.9 28.8L-31.2 7.1L-25 -20Z" stroke="#FA824C" fill="none" stroke-width="2"></path></g></g></svg>