<svg id="visual" viewBox="0 0 900 600" width="900" height="600" xmlns="http://www.w3.org/2000/svg" xmlns:xlink="http://www.w3.org/1999/xlink" version="1.1"><path d="M0 55L82 115L164 103L245 109L327 55L409 115L491 67L573 115L655 109L736 67L818 115L900 115L900 0L818 0L736 0L655 0L573 0L491 0L409 0L327 0L245 0L164 0L82 0L0 0Z" fill="#00cc8e"></path><path d="M0 127L82 193L164 199L245 253L327 139L409 223L491 175L573 205L655 253L736 175L818 193L900 247L900 113L818 113L736 65L655 107L573 113L491 65L409 113L327 53L245 107L164 101L82 113L0 53Z" fill="#00b98a"></path><path d="M0 169L82 235L164 247L245 325L327 199L409 319L491 247L573 301L655 325L736 229L818 253L900 289L900 245L818 191L736 173L655 251L573 203L491 173L409 221L327 137L245 251L164 197L82 191L0 125Z" fill="#00a784"></path><path d="M0 463L82 421L164 493L245 499L327 415L409 529L491 379L573 409L655 475L736 385L818 469L900 475L900 287L818 251L736 227L655 323L573 299L491 245L409 317L327 197L245 323L164 245L82 233L0 167Z" fill="#00957c"></path><path d="M0 601L82 601L164 601L245 601L327 601L409 601L491 601L573 601L655 601L736 601L818 601L900 601L900 473L818 467L736 383L655 473L573 407L491 377L409 527L327 413L245 497L164 491L82 419L0 461Z" fill="#038373"></path></svg>